<?xml version="1.0" encoding="utf-8"?>
<!-- Generator: Adobe Illustrator 23.0.1, SVG Export Plug-In . SVG Version: 6.00 Build 0)  -->
<svg version="1.2" baseProfile="tiny" id="Camada_1"
	 xmlns="http://www.w3.org/2000/svg" xmlns:xlink="http://www.w3.org/1999/xlink" x="0px" y="0px" viewBox="0 0 841.9 595.3"
	 xml:space="preserve">
<g>
	<path fill="#555555" d="M211.8,376.2c-19.7-12.1-39.5-24.2-59.5-35.9c-30-17.7-59.5-36.4-89.1-54.8c-10.6-6.6-21-13.4-31.5-20.2
		c-7.2-4.7-6.9-14.5,0.4-19c76-46.1,151.9-92.2,227.9-138.2c46.3-28,92.8-55.9,139.2-83.8c5.3-3.2,10.6-6.6,15.6-10.2
		c3.9-2.8,7.2-2.6,11.2-0.2c25.1,14.6,49.3,30.7,73.8,46.3c94.3,60.2,188.5,120.5,282.7,180.8c9.2,5.9,18.3,11.9,27.5,17.7
		c6.6,4.2,7,13.9,0.6,18.6c-8.5,6.2-17.9,11.1-27,16.4c-51,29.3-102.1,58.6-153.1,87.9c-0.7,0.4-1.4,0.6-2.1,0.9
		c-2.7-2.5-1.8-5.8-1.8-8.8c-0.1-29.8-0.2-59.6,0-89.4c0.1-9.2-2.8-17.1-8-24.5c-19.5-27.7-46.1-46.3-76.5-60.6
		c-30.1-14.1-61.7-21.4-94.5-24.6c-40.8-3.9-80.7,1.1-120.1,12.4c-36.9,10.6-68.6,29.2-95.1,56.8c-4.3,4.5-8.3,9.3-11.9,14.4
		c-4.5,6.5-5,14.2-5.9,21.7c-0.9,7.4,0.5,14.9-0.3,22.1c-1.3,12.3-0.7,24.5-0.9,36.8c-0.2,10.1,0,20.3-0.1,30.4
		C213.5,371.5,213.9,374.2,211.8,376.2z"/>
	<path fill="#323232" d="M211.8,376.2c0-19.5-0.1-39,0.1-58.5c0.1-13.7,0.3-27.5,1.2-41.1c0.8-11.8,6.2-21.6,14.3-30.2
		c18-19.1,38.2-35.6,61.9-46.9c24.1-11.6,49.8-18.5,76.1-23.3c21.6-4,43.5-5.7,65.5-4.6c29.3,1.4,58.3,5.5,86.1,15.3
		c33.3,11.8,64.2,28,88.7,54.1c8.3,8.8,16.6,18,20.8,29.9c1.3,3.5,1.7,7.1,1.7,10.9c0,33.5,0.1,67,0.2,100.6c0,0.3-0.1,0.6-0.3,0.9
		c-1.1,10.1-0.3,20.2-0.4,30.3c-0.2,13.6,0.5,27.2-1.5,40.7c-3.6,1.4-4.3-1.8-5.5-3.7c-5.9-9-12.4-17.5-19.8-25.2
		c-20.2-21.1-44.6-35.3-71.8-45.8c-26.2-10.1-53-17-80.8-20c-16.6-1.8-33.3-2.2-50.1-0.8c-24.9,2.1-49.3,6.9-73.5,13.1
		c-16.8,4.3-31.7,12.6-46.3,21.7c-15,9.4-29.9,18.9-43.4,30.6c-5.9,5.1-11.1,10.9-16.8,16.2c-1.8,1.7-3.2,4.1-6.2,3.6
		c0-19.1-0.1-38.1-0.1-57.2C211.9,383.2,211.9,379.7,211.8,376.2z"/>
	<path d="M627.5,489.7c-11.5,18.1-26.6,32.8-43.6,45.9c-30.8,23.7-66.5,35.3-104,42.3c-55,10.2-109.1,6.3-161.8-12.4
		c-27.9-9.9-53.3-24.6-75.3-44.9c-11.4-10.6-20.5-22.9-28.3-36.2c-1.6-2.7-3-5.5-2.7-8.8c3.8-9.3,11.1-15.6,18.2-22.1
		c8.6-6.7,17.2-13.5,23.3-22.8c11.9-10.3,25.9-17.2,39.8-24.2c27.4-13.7,56.8-20.8,86.9-24.1c65.3-7,127.8,1.9,185.7,35
		c26.2,15,44.3,37.6,59.5,62.9C627.1,483.1,628.1,486.2,627.5,489.7z"/>
	<path fill="#F4B33A" d="M627.5,489.7c-3.8-11.5-11-20.8-18-30.4c-31.2-42.7-76.5-60.4-125.6-70.9c-58.1-12.4-115.5-8.7-171.4,11.5
		c-21,7.6-41.1,17.6-58.6,32.1c-7.9,7.3-15.3,15.2-23.2,22.6c-7,6.4-13.1,13.5-18.7,21c-0.5-10.5-0.5-21.1,0.2-31.6
		c18.3-19,39.2-34.7,61.3-49.2c26.8-17.6,56-27,87.1-32.8c48.8-9.1,96.9-7.3,144.3,7.4c28.4,8.8,55.8,19.7,79.4,38.5
		c16.5,13.1,30.3,28.5,40.9,46.7c1.7,0.7,1.4,2.5,2.2,3.8C626.4,468.8,629.2,479.2,627.5,489.7z"/>
	<path fill="#323232" d="M627.2,458.3c-0.7-1.3-1.5-2.5-2.2-3.8c2.3-4.9,1.6-10.2,1.7-15.3c0.4-17.3,0.3-34.5,0.4-51.8
		c0-1.5-0.4-3.2,1.2-4.3C627.9,408.2,628.7,433.3,627.2,458.3z"/>
</g>
</svg>
